<?xml version="1.0" standalone="no"?>
<!DOCTYPE svg PUBLIC "-//W3C//DTD SVG 20010904//EN"
 "http://www.w3.org/TR/2001/REC-SVG-20010904/DTD/svg10.dtd">
<svg version="1.0" xmlns="http://www.w3.org/2000/svg"
 width="586.000000pt" height="426.000000pt" viewBox="0 0 586.000000 426.000000"
 preserveAspectRatio="xMidYMid meet">
<metadata>
Created by potrace 1.16, written by Peter Selinger 2001-2019
</metadata>
<g transform="translate(0.000000,426.000000) scale(0.100000,-0.100000)"
fill="#000000" stroke="none">
<path d="M3252 2423 l3 -178 450 0 450 0 3 178 2 177 -455 0 -455 0 2 -177z"/>
<path d="M1440 2091 c-23 -44 -14 -51 59 -50 144 1 248 -86 267 -223 13 -97
-49 -212 -140 -261 -32 -17 -58 -22 -117 -22 l-77 1 -1 -343 c-1 -226 2 -350
9 -363 11 -20 23 -20 988 -20 747 0 981 3 990 12 17 17 17 1259 0 1276 -9 9
-243 12 -990 12 -956 0 -978 0 -988 -19z m1006 -199 c19 -12 234 -358 234
-375 0 -25 -28 -28 -270 -25 -206 3 -225 4 -228 21 -2 9 47 97 109 195 104
163 125 192 139 192 3 0 10 -4 16 -8z m47 -523 c22 -24 27 -39 27 -80 0 -85
-35 -129 -102 -129 -60 1 -98 49 -98 122 0 57 18 89 60 111 44 22 77 15 113
-24z m225 7 c48 -47 46 -151 -3 -193 -47 -41 -123 -25 -150 32 -32 70 -10 155
48 181 39 17 74 10 105 -20z m-438 5 c0 -17 -8 -20 -47 -23 -41 -3 -48 -6 -51
-25 -3 -20 1 -23 33 -23 38 0 85 -35 85 -64 0 -57 -52 -92 -126 -83 -51 5 -67
16 -59 40 5 12 17 14 61 10 45 -5 55 -3 60 12 10 25 -21 45 -70 45 l-41 0 3
52 c5 79 3 78 82 78 63 0 70 -2 70 -19z"/>
<path d="M3454 1935 l0 -175 350 2 351 3 3 173 2 172 -353 0 -353 0 0 -175z"/>
<path d="M1453 2010 c-23 -9 -23 -11 -23 -224 0 -241 -5 -226 81 -226 127 0
229 106 229 237 0 51 -43 137 -86 169 -57 44 -150 64 -201 44z"/>
<path d="M853 1935 c-17 -7 -39 -27 -47 -44 -22 -41 -30 -45 -116 -51 -119
-10 -168 -46 -177 -131 -9 -83 70 -178 148 -179 23 0 28 6 35 38 4 20 8 44 7
52 -2 25 59 92 103 111 42 19 60 49 42 67 -19 19 10 52 46 52 41 0 51 -23 28
-70 -13 -27 -13 -33 -1 -41 38 -24 60 16 40 73 -6 17 -9 46 -5 63 9 52 -46 85
-103 60z"/>
<path d="M3459 1628 c-1 -2 -2 -83 -4 -180 l-2 -178 322 0 c362 0 340 -5 370
79 17 50 21 206 4 216 -5 4 -9 19 -7 33 l3 27 -342 3 c-189 1 -344 1 -344 0z"/>
<path d="M779 1383 c-5 -14 -14 -99 -19 -187 -17 -268 -19 -300 -30 -356 -5
-29 -10 -61 -10 -71 0 -21 36 -35 53 -21 9 8 21 0 45 -28 17 -21 32 -41 32
-44 0 -3 -18 -6 -40 -6 -26 0 -40 5 -40 13 0 7 -14 18 -31 24 -27 11 -31 10
-41 -13 l-11 -24 -194 0 c-110 0 -192 -4 -189 -9 7 -11 5241 -9 5252 2 4 4
-120 7 -275 7 l-283 0 35 39 c20 22 43 54 52 71 19 37 16 92 -5 97 -11 4 -12
2 -2 -5 7 -4 12 -22 10 -40 -2 -24 -5 -29 -18 -22 -9 5 -23 4 -33 -2 -13 -7
-27 -6 -48 2 -23 10 -32 10 -44 0 -8 -7 -22 -10 -30 -6 -8 3 -15 1 -15 -4 0
-11 -117 -12 -233 -1 -103 9 -117 0 -117 -75 0 -58 -14 -73 -25 -26 -6 28 -7
28 -59 21 -57 -7 -96 -24 -96 -39 0 -6 -20 -10 -44 -10 -41 0 -45 2 -48 28 -3
26 -4 27 -65 25 -66 -1 -103 -15 -103 -38 0 -13 -40 -15 -270 -15 -265 0 -270
0 -260 19 5 11 10 36 10 55 l0 36 283 2 282 3 3 178 2 177 -352 -2 -353 -3 -1
-164 c0 -148 -2 -165 -19 -177 -16 -12 -187 -14 -1010 -14 l-991 0 -20 23
c-11 12 -19 30 -18 40 2 13 1 13 -3 2 -2 -9 -10 -15 -16 -14 -26 3 -38 -2 -31
-12 4 -7 9 -8 13 -1 4 6 11 4 19 -4 11 -12 9 -13 -8 -11 -21 3 -53 32 -63 57
-3 10 -6 6 -6 -8 -1 -13 9 -32 22 -42 29 -24 13 -39 -21 -20 -21 12 -46 14
-112 8 -152 -11 -220 -10 -220 6 0 9 20 15 71 18 45 4 75 11 80 19 6 10 9 11
9 2 0 -8 12 -13 28 -13 l27 1 -30 13 c-25 11 -36 11 -64 -1 -19 -7 -52 -13
-74 -11 l-39 2 7 91 c4 49 14 126 22 170 11 59 14 111 9 194 -3 63 -8 116 -10
119 -3 2 -41 -19 -85 -48 -92 -59 -124 -63 -129 -16 -2 19 2 32 12 38 20 11
21 28 1 28 -9 0 -20 -12 -26 -27z"/>
<path d="M4345 1350 c-22 -5 -62 -6 -90 -3 -47 5 -51 3 -67 -25 -22 -36 -24
-158 -7 -363 16 -194 18 -203 55 -207 l31 -3 7 152 c9 199 17 272 28 261 5 -5
39 -101 76 -213 64 -196 68 -204 95 -207 17 -2 29 2 33 12 3 9 -3 64 -15 123
-18 93 -71 446 -71 473 0 11 -18 11 -75 0z"/>
</g>
</svg>
